<mxfile host="app.diagrams.net" modified="2024-02-01T08:45:45.818Z" agent="Mozilla/5.0 (Windows NT 10.0; Win64; x64) AppleWebKit/537.36 (KHTML, like Gecko) Chrome/121.0.0.0 Safari/537.36" version="23.0.2" etag="cTQlWVVZUOCd307AD0B7" type="github">
  <diagram name="Page-1" id="MkZipYA8XyHIweD2qK5L">
    <mxGraphModel>
      <root>
        <mxCell id="0" />
        <mxCell id="1" parent="0" />
      </root>
    </mxGraphModel>
  </diagram>
</mxfile>
